<svg width="37" height="37" viewBox="0 0 37 37" fill="none" xmlns="http://www.w3.org/2000/svg">
<path fill-rule="evenodd" clip-rule="evenodd" d="M0 5.78125C0 2.58835 2.58835 0 5.78125 0H31.2188C34.4116 0 37 2.58835 37 5.78125V31.2188C37 34.4116 34.4116 37 31.2188 37H5.78125C2.58835 37 0 34.4116 0 31.2188V5.78125ZM10.545 10.545C9.25 11.8523 9.25 13.9428 9.25 18.13V18.87C9.25 23.051 9.25 25.1415 10.545 26.455C11.8523 27.75 13.9428 27.75 18.13 27.75H18.87C23.051 27.75 25.1415 27.75 26.455 26.455C27.75 25.1477 27.75 23.0572 27.75 18.87V18.13C27.75 13.949 27.75 11.8585 26.455 10.545C25.1477 9.25 23.0572 9.25 18.87 9.25H18.13C13.949 9.25 11.8585 9.25 10.545 10.545Z" fill="white"/>
<path d="M19.092 22.5762C14.874 22.5762 12.469 19.6902 12.3703 14.8802H14.4917C14.5595 18.4075 16.1135 19.8998 17.3468 20.2082V14.8802H19.3387V17.9203C20.5535 17.7908 21.8362 16.4033 22.2678 14.874H24.2535C24.0916 15.6657 23.7682 16.4154 23.3034 17.0765C22.8387 17.7375 22.2426 18.2956 21.5525 18.7158C22.3227 19.0992 23.0028 19.6414 23.5481 20.3068C24.0934 20.9723 24.4915 21.7457 24.716 22.5762H22.5268C22.0582 21.1147 20.8865 19.98 19.3387 19.8258V22.5762H19.092Z" fill="white"/>
</svg>
