<svg width="37" height="37" viewBox="0 0 37 37" fill="none" xmlns="http://www.w3.org/2000/svg">
<path d="M21.5063 18.5L16.65 15.725V21.275L21.5063 18.5Z" fill="white"/>
<path fill-rule="evenodd" clip-rule="evenodd" d="M0 5.78125C0 2.58835 2.58835 0 5.78125 0H31.2188C34.4116 0 37 2.58835 37 5.78125V31.2188C37 34.4116 34.4116 37 31.2188 37H5.78125C2.58835 37 0 34.4116 0 31.2188V5.78125ZM25.6688 12.3719C26.4781 12.6031 27.0563 13.1813 27.2875 13.9906C27.75 15.4938 27.75 18.5 27.75 18.5C27.75 18.5 27.75 21.5063 27.4031 23.0094C27.1719 23.8188 26.5937 24.3969 25.7844 24.6281C24.2812 24.975 18.5 24.975 18.5 24.975C18.5 24.975 12.6031 24.975 11.2156 24.6281C10.4062 24.3969 9.82813 23.8188 9.59688 23.0094C9.25 21.5063 9.25 18.5 9.25 18.5C9.25 18.5 9.25 15.4938 9.48125 13.9906C9.7125 13.1813 10.2906 12.6031 11.1 12.3719C12.6031 12.025 18.3844 12.025 18.3844 12.025C18.3844 12.025 24.2813 12.025 25.6688 12.3719Z" fill="white"/>
</svg>
