<svg width="13" height="13" viewBox="0 0 13 13" fill="none" xmlns="http://www.w3.org/2000/svg">
<g clip-path="url(#clip0_39_1907)">
<path d="M7.69177 8.80803C6.11465 8.14026 4.86051 6.8832 4.1964 5.30453L6.03806 3.45962L2.64723 0.0660757L0.929606 1.78316C0.631689 2.08278 0.396144 2.4385 0.236597 2.82974C0.0770504 3.22099 -0.00333028 3.63998 0.00010568 4.06249C0.00010568 7.98849 5.0116 13 8.9376 13C9.36007 13.0037 9.77906 12.9234 10.1703 12.7639C10.5614 12.6043 10.917 12.3686 11.2164 12.0705L12.934 10.3529L9.54048 6.95933L7.69177 8.80803ZM10.4499 11.3046C10.251 11.5018 10.0149 11.6574 9.75525 11.7625C9.49561 11.8676 9.21768 11.92 8.9376 11.9167C5.5614 11.9167 1.08344 7.4387 1.08344 4.06249C1.08025 3.78236 1.13271 3.50438 1.23778 3.24468C1.34285 2.98498 1.49844 2.74872 1.69552 2.54962L2.64723 1.59791L4.50894 3.45962L2.91915 5.04941L3.05186 5.38199C3.44253 6.42704 4.05327 7.3759 4.84269 8.16429C5.63211 8.95268 6.58176 9.56218 7.62731 9.95149L7.95556 10.0766L9.54048 8.49116L11.4022 10.3529L10.4499 11.3046ZM7.58344 1.08333V-7.62939e-06C9.01954 0.00156949 10.3964 0.572759 11.4119 1.58824C12.4273 2.60372 12.9985 3.98055 13.0001 5.41666H11.9168C11.9155 4.26778 11.4585 3.16633 10.6461 2.35395C9.83376 1.54158 8.73231 1.08462 7.58344 1.08333ZM7.58344 3.24999V2.16666C8.44513 2.16752 9.27128 2.51021 9.88058 3.11951C10.4899 3.72882 10.8326 4.55497 10.8334 5.41666H9.7501C9.7501 4.84202 9.52183 4.29092 9.1155 3.88459C8.70917 3.47827 8.15807 3.24999 7.58344 3.24999Z" fill="#4B4B4B"/>
</g>
<defs>
<clipPath id="clip0_39_1907">
<rect width="13" height="13" fill="white"/>
</clipPath>
</defs>
</svg>
