<svg width="21" height="21" viewBox="0 0 21 21" fill="none" xmlns="http://www.w3.org/2000/svg">
<g clip-path="url(#clip0_145_354)">
<path d="M10.4628 21.0068L9.85287 20.484C9.01201 19.7799 1.66992 13.439 1.66992 8.80081C1.66992 3.94464 5.60664 0.00791931 10.4628 0.00791931C15.319 0.00791931 19.2557 3.94464 19.2557 8.80081C19.2557 13.4391 11.9136 19.78 11.0762 20.4875L10.4628 21.0068ZM10.4628 1.9092C6.65849 1.91351 3.57555 4.99645 3.57124 8.80077C3.57124 11.7146 8.08837 16.3694 10.4628 18.4999C12.8373 16.3685 17.3544 11.7111 17.3544 8.80077C17.3501 4.99645 14.2672 1.91355 10.4628 1.9092Z" fill="white"/>
<path d="M10.463 12.2859C8.53802 12.2859 6.97754 10.7254 6.97754 8.8005C6.97754 6.87556 8.53802 5.31508 10.463 5.31508C12.3879 5.31508 13.9484 6.87556 13.9484 8.8005C13.9484 10.7254 12.388 12.2859 10.463 12.2859ZM10.463 7.05775C9.50049 7.05775 8.72025 7.83799 8.72025 8.80046C8.72025 9.76294 9.50049 10.5432 10.463 10.5432C11.4254 10.5432 12.2057 9.76294 12.2057 8.80046C12.2057 7.83799 11.4255 7.05775 10.463 7.05775Z" fill="white"/>
</g>
<defs>
<clipPath id="clip0_145_354">
<rect width="21" height="21" fill="white"/>
</clipPath>
</defs>
</svg>
